<svg xmlns="http://www.w3.org/2000/svg" viewBox="0 0 1024 1024" xml:space="preserve"><path d="M543 312.642c12.996-.002 25.492-.064 37.988.008 19.174.11 34.226 15.088 34.316 34.354.128 27.824.034 55.65.1 83.473.008 2.973-.098 5.473-4.114 4.938-3.397-.452-8.322 1.765-8.182-4.776.043-1.997-.043-3.998-.045-5.997-.034-24.825-.02-49.65-.108-74.475-.06-16.78-9.25-25.802-26.121-25.831-1.333-.003-2.666-.01-3.999.005-3.497.038-7.212-.646-10.437.313-4.085 1.216-2.229 6.04-3.783 9.027-2.487 4.78-5.78 8.497-11.327 8.564-25.976.313-51.96 1.55-77.931.184-8.975-.472-13.295-4.246-14.985-13.185-.789-4.17-2.705-5.12-6.377-4.917-3.321.184-6.662.017-9.994.024-16.79.035-26.725 10.192-26.57 26.89.241 25.808.359 51.617.495 77.425.031 6.07-5.002 9.02-10.628 6.39-1.797-.84-1.626-2.37-1.627-3.818-.017-29.157-.382-58.32.147-87.468.303-16.676 15.953-31.011 32.718-31.065 36.655-.117 73.31-.052 110.464-.063m-50.29 20.052c8.157-.002 16.315.009 24.473-.012 3.162-.009 6.327-.024 9.485-.168 1.381-.063 2.745-.646 2.88-2.244.16-1.905-1.257-2.59-2.857-2.781-1.317-.157-2.659-.13-3.99-.132-10.322-.009-20.645-.065-30.966.038-2.624.026-6.895-1.108-6.85 2.762.049 4.053 4.41 1.967 7.825 2.537" data-index="0"/><path d="M364.286 481.098c8.116-5.61 16.72-7.04 25.99-5.355 10.855 1.971 18.636 11.071 18.923 23.196.338 14.319.08 28.65.229 42.976.038 3.722-1.733 5.113-5.127 5.137-3.165.023-6.33.061-9.495.043-6.646-.038-7.723-1.088-7.76-7.926-.054-9.662-.006-19.324-.005-28.986 0-1.499.026-3-.041-4.497-.317-7.013-3.492-10.363-9.953-10.545-6.73-.19-11.477 3.6-11.737 10.209-.353 8.981-.119 17.985-.142 26.98-.04 15.673 1.997 14.959-14.688 14.803-7.218-.067-7.704-.534-7.722-7.641-.027-10.662.02-21.324-.062-31.984-.062-8.115-3.568-12.125-10.555-12.332-7.15-.212-11.497 3.91-11.637 11.927-.177 10.15.055 20.315.355 30.467.255 8.642-.473 9.566-8.981 9.596-14.357.051-13.159.451-13.165-12.888-.007-16.825-.022-33.65-.003-50.475.007-6.459.623-7.023 7.242-7.057 1.832-.009 3.667.063 5.497-.007 3.888-.15 7.547.027 8.099 5.797 7.733-6.371 15.87-8.31 24.88-6.874 4.41.703 8.61 2.151 11.496 5.477 2.978 3.432 5.319 3.146 8.362-.041" data-index="1"/><path d="M399.672 593.006c.003-3.664.309-6.865-.057-9.987-.64-5.45 2.607-5.752 6.675-5.994 4.555-.271 5.73 1.79 5.723 5.916-.05 29.32.027 58.64.08 87.96.005 3.164-.038 6.34.198 9.49.845 11.32 10.14 20.318 21.447 20.34 48.978.091 97.957.105 146.935.006 12.979-.027 22.163-9.577 22.247-23.206.17-27.82.05-55.641.052-83.462 0-4.165.094-8.331.001-12.494-.11-4.9 3.28-4.521 6.514-4.534 3.141-.012 5.918-.13 5.901 4.507-.121 33.151.207 66.307-.19 99.454-.206 17.05-15.772 32.106-32.903 32.174-49.81.199-99.623.202-149.434-.023-18.254-.083-33.035-16.047-33.126-35.186-.135-28.153-.053-56.308-.063-84.961" data-index="2"/><path d="M562.125 500.995c-6.997 9.637-16.831 12.556-27.675 13.167-4.151.235-8.332.194-12.488.02-3.404-.143-4.785 1.082-4.696 4.61.183 7.324-.114 14.66.092 21.984.13 4.582-1.999 6.365-6.274 6.332-3.498-.027-7.003-.149-10.492.032-4.544.235-6.063-1.716-6.038-6.24.143-26.316.05-52.633.034-78.95-.001-1.833.01-3.665-.03-5.497-.194-8.77-.198-8.898 8.787-8.729 12.308.232 24.646-.834 36.924.651 27.039 3.271 32.274 29.82 24.933 47.073-.777 1.825-1.906 3.5-3.077 5.547m-44.8-22.451c.005 3.662.113 7.328-.019 10.985-.105 2.897.89 4.37 3.986 4.256 3.657-.134 7.33.09 10.983-.105 7.65-.409 12.38-5.402 12.39-12.851.01-7.418-4.777-12.218-12.567-12.574-1.662-.076-3.328-.085-4.992-.102-11.67-.116-9.55-.454-9.781 10.39" data-index="3"/><path d="M730.853 484.631c1.331 4.102-1.054 6.288-3.373 8.512-6.054 5.803-5.754 13.712.703 18.753 5.134 4.007 5.154 5.119 1.392 14.354-1.837 4.51-4.4 6.35-9.611 5.35-9.676-1.853-15.929 3.018-16.918 12.836-.513 5.088-3.005 7.495-7.906 7.796-1.164.072-2.333.081-3.492.194-8.22.797-8.92.32-11.05-7.628-2.075-7.74-8.5-11.057-16.123-8.504-2.871.96-5.922 3.353-8.911.783-3.864-3.323-6.64-7.532-7.27-12.713-.313-2.567 1.802-4.128 3.486-5.761 6.368-6.171 5.825-14.8-1.47-19.767-4.159-2.83-5.466-6.007-2.838-10.51.752-1.288 1.215-2.74 1.888-4.076 3.124-6.198 4.293-6.797 10.959-5.185 2.801.677 5.576 1.115 8.374.311 5.33-1.532 7.62-4.612 8.047-10.596.447-6.257 2.042-7.802 8.297-8.106 1.661-.081 3.32-.231 4.977-.386 4.24-.397 6.774 1.1 7.939 5.578 2.765 10.63 7.273 12.811 17.477 9.049 6.867-2.533 8.838-1.849 12.67 4.513.944 1.565 1.737 3.222 2.753 5.203m-32.382 5.215c-1.73-.563-3.426-1.293-5.197-1.661-9.628-2.002-18.707 3.684-21.45 13.348-2.567 9.043 2.164 18.504 10.995 21.988 8.218 3.242 18.474-.511 22.84-8.359 4.802-8.63 2.233-18.41-7.188-25.316" data-index="4"/><path d="M640.406 516.996c.18 8.158.307 15.82.565 23.476.157 4.663-2.004 6.733-6.605 6.602-3.497-.1-7-.087-10.498-.007-3.83.088-5.28-1.674-5.236-5.491.135-11.498.135-23-.006-34.497-.104-8.516-4.413-12.565-12.382-12.046-5.53.36-8.659 3.015-10.087 8.71-1.484 5.914-.564 11.947-.702 17.924-.154 6.662-.183 13.337.053 19.995.141 3.97-1.632 5.479-5.303 5.434-.166-.003-.333.01-.5.01-19.326-.011-15.95 1.644-16.05-15.2-.158-26.664-.029-53.33.002-79.994.008-7.218.553-7.746 7.532-7.882 14.143-.274 14.148-.274 14.17 13.783.01 7.307.001 14.614.001 21.646 1.985 1.214 2.96-.026 4.039-.644 8.003-4.588 16.408-5.184 25.06-2.35 9.474 3.103 15.397 11.14 15.807 21.535.243 6.158.106 12.33.14 18.996" data-index="5"/><path d="M459.58 494.681c1.79-4.901 3.489-9.42 5.103-13.968.966-2.723 2.828-3.938 5.684-3.91 4.33.04 8.664-.105 12.992 0 4.607.113 5.847 1.757 4.217 5.95-10.195 26.215-20.217 52.503-30.842 78.544-5.976 14.647-18.68 20.782-34.081 17.722-5.707-1.134-6.64-2.398-5.87-8.125.222-1.645.636-3.263.874-4.907.97-6.707 1.12-6.831 7.788-5.876 9.258 1.326 16.65-8.46 13.024-17.592-6.08-15.316-12.42-30.53-18.664-45.78-2.018-4.93-4.052-9.853-6.122-14.76-1.475-3.5-.056-5.128 3.432-5.197 4.995-.1 9.994 0 14.99-.033 3.038-.02 4.36 1.854 5.312 4.394 3.853 10.286 7.78 20.545 11.657 30.821.575 1.523.802 3.207 2.604 4.775 2.655-7.406 5.216-14.547 7.903-22.058" data-index="6"/><path d="M869.943 519.357c-12.284-.003-24.077-.003-35.883-.003.18 5.265 3.403 9.042 8.904 10.113 6.367 1.24 12.703 1.235 17.828-3.705 2.004-1.931 4.028-2.015 6.357-.88 1.646.803 3.329 1.53 4.981 2.32 7.214 3.452 7.591 5.941 1.787 11.693-9.83 9.74-27.924 12.434-42.624 6.345-12.369-5.122-19.974-17.834-20.777-32.097-1.28-22.717 18.395-44.207 47.193-37.171 12.162 2.971 21.866 14.102 23.556 27.006.346 2.637.803 5.286.828 7.933.062 6.549-1.76 8.335-8.162 8.439-1.166.018-2.332.007-3.988.007m-10.575-16.852c-1.57-6.92-6.085-9.954-13.934-9.361-6.376.481-10.821 4.498-11.165 10.448 8.241-.19 16.465.845 25.1-1.087" data-index="7"/><path d="M798.754 546.38c-4.134.012-7.807-.158-11.457.064-4.41.27-5.393-2.2-5.383-5.877a4714 4714 0 0 0-.024-31.465c-.042-10.223-3.301-14.64-10.763-14.707-7.866-.071-12.025 5.072-12.018 14.917.007 10.322-.09 20.646.124 30.964.098 4.743-1.945 6.725-6.51 6.604-3.66-.097-7.323-.044-10.982-.163-3.24-.105-4.81-1.91-4.81-5.124l-.03-59.932c-.002-3.562 1.796-5.102 5.316-4.984 2.993.1 5.994.067 8.989-.018 3.503-.1 6.56.295 6.114 5.741 5.721-4.64 11.34-7.283 17.817-7.677 17.645-1.075 28.34 8.174 28.99 25.908.495 13.466.058 26.966.06 40.45 0 3.359-1.223 5.483-5.433 5.3" data-index="8"/><path d="M290.62 537.492c.522.692.872 1.062 1.12 1.492 1.124 1.952 3.417 3.718 2.105 6.245-1.294 2.493-4.013 1.986-6.29 1.943-19.545-.37-14.165 2.906-24.642-14.078-1.11-1.8-1.804-3.92-4.294-5.4-2.765 4.555-5.802 8.898-8.138 13.589-2.347 4.71-5.702 6.477-10.816 5.953-3.296-.338-6.654-.063-9.984-.088-1.996-.015-4.233.213-5.412-1.783-1.27-2.15.483-3.781 1.582-5.373 5.582-8.082 11.126-16.193 16.886-24.147 2.07-2.859 2.128-5.127.09-8.057-5.32-7.65-10.392-15.475-15.484-23.282-1.142-1.752-3.067-3.571-1.985-5.842 1.123-2.36 3.745-1.514 5.816-1.87 11.957-2.056 20.754 1.512 25.082 13.587.585 1.63 1.948 2.981 3.144 4.746 3.54-4.208 5.728-8.703 8.073-13.055 2.038-3.782 4.695-5.721 9.163-5.353 3.804.313 7.658-.04 11.483.096 5.238.188 6.334 2.228 3.455 6.538-5.361 8.028-10.72 16.064-16.353 23.9-2.162 3.007-2.462 5.234-.118 8.346 5.306 7.043 10.222 14.38 15.516 21.893" data-index="9"/><path d="M151.674 537.903c-.001-12.65-.118-24.815.06-36.976.059-3.935-.935-5.773-5.277-5.66-5.742.15-6.367-.796-6.021-6.334a98 98 0 0 0 .17-4.493c.114-6.97.101-7.074 7.188-7.55 2.706-.183 3.915-1.156 3.883-3.927-.04-3.493-.186-7.042.33-10.474 2.51-16.692 15.704-22.457 30.839-21.493 8.535.544 13 10.284 8.547 17.866-.825 1.404-1.97 1.633-3.353 1.598-1.832-.048-3.665-.185-5.495-.144-7.012.16-11.714 9.046-8.031 15.122 1.2 1.98 3.196 1.46 4.948 1.507 11.7.309 11.454.284 11.115 12.15-.14 4.884-1.972 6.32-6.574 6.31-10.64-.027-10.646.132-10.648 10.599-.003 11.664-.159 23.331.087 34.99.098 4.67-1.856 6.35-6.198 6.172-2.33-.096-4.665-.017-6.998-.03-8.522-.042-8.552-.074-8.572-9.233" data-index="10"/><path d="M218.212 494.007c.007 15.66.041 30.82.01 45.98-.012 6.054-1.015 7.06-6.885 7.144-3.33.047-6.663-.04-9.994-.057-3.275-.017-4.78-1.532-4.767-4.927.075-19.99.087-39.982.022-59.973-.012-3.616 1.553-5.208 5.077-5.164 3.83.047 7.662.021 11.494.038 3.289.015 4.886 1.783 4.952 4.967.08 3.83.066 7.663.091 11.992" data-index="11"/><path d="M201.867 467.799c-7.165-3.948-9.457-11.077-6.09-17.887 2.812-5.689 11.188-7.898 17.905-4.723 5.496 2.598 8.058 10.075 5.538 16.288-1.647 4.059-4.758 6.38-9.052 6.752-2.61.226-5.273-.162-8.301-.43" data-index="12"/></svg>
