<svg xmlns="http://www.w3.org/2000/svg" viewBox="0 0 1024 1024" width="120" height="120" xml:space="preserve"><path d="M536 368.726c8.497-.002 16.495-.012 24.492-.003 14.966.015 24.604 9.165 24.728 24.039.192 23.158.078 46.318.056 69.478-.002 2.244.523 4.987-3.21 4.88-3.43-.097-3.334-2.54-3.386-4.944-.463-21.15-.95-42.3-.635-63.458.047-3.16.015-6.343-.3-9.483-.679-6.782-6.372-12.377-13.135-12.94-2.814-.234-5.667.039-8.49-.132-4.278-.259-7.654.04-8.712 5.514-.71 3.672-4.035 5.634-7.955 5.642-17.66.036-35.322.04-52.982-.01-4.29-.013-7.562-2.071-8.636-6.237-1.058-4.108-3.471-5.265-7.283-4.923-1.486.133-3.007.096-4.494-.05-13.738-1.354-19.195 8.559-18.703 18.93 1.05 22.146-.242 44.295-.044 66.443.015 1.635.4 3.427-.68 4.844-1.065 1.398-2.726 1.008-4.18.81-2.227-.302-2.374-2.14-2.349-3.804.096-6.16.418-12.317.448-18.477.085-16.994.056-33.989.09-50.984.034-16.27 8.773-25.123 24.882-25.14 23.326-.024 46.652.002 70.478.005" data-index="0"/><path d="M580.106 561.032c4.374-1.016 5.757.549 5.706 4.581-.278 22.143-.383 44.289-.502 66.434-.076 13.978-8.724 23.648-22.74 23.787a4845 4845 0 0 1-99.417-.023c-13.745-.146-22.404-9.805-22.437-23.52-.053-21.483-.067-42.966-.088-64.448-.002-1.498.063-2.996.112-4.493.062-1.896 1.184-2.6 2.939-2.606 1.715-.005 3.477-.061 3.698 2.287.218 2.317.525 4.642.52 6.962-.051 19.312.615 38.63-.459 57.933-.223 4.021.096 8.022 1.66 11.767 2.418 5.792 6.862 8.978 13.16 8.989 33.806.057 67.612.094 101.418-.039 9.031-.035 14.89-7.178 14.932-17.754.084-21.15.026-42.3.088-63.449.006-2.097-.599-4.362 1.41-6.408" data-index="1"/><path d="M646.337 512.88c-.43 3.338 1.228 5.06 3.493 6.44 2.5 1.523 2.905 3.621 1.206 5.877-1.819 2.414-2.193 6.726-7.006 5.503-4.42-1.124-11.097 3.369-11.582 8.037-.353 3.404-.98 5.748-5.147 5.665-3.57-.07-6.295-.046-7.041-4.824-.915-5.85-7.632-8.84-12.755-5.952-3.67 2.069-4.75-.513-6.184-2.666-1.496-2.246-3.858-4.293-.53-7.23 5.911-5.214 5.511-10.654-1.083-14.509-3.389-1.981-2.649-4.232-1.22-6.643 1.546-2.611 1.868-6.926 6.832-5.404 6.738 2.067 11.241-.692 12.446-7.702.588-3.42 2.481-4.714 5.816-4.822 3.261-.106 5.684.195 6.71 4.11 1.793 6.843 6.836 9.103 13.002 6.129 2.122-1.025 3.864-1.238 5.049 1.054 1.509 2.917 4.91 5.746 1.307 9.272-2.106 2.06-4.009 4.013-3.313 7.665m-10.486-2.069c-3.172-7.052-8.519-9.836-14.538-7.569-5.702 2.149-8.579 8.746-6.698 15.36 1.577 5.547 7.296 9.085 12.73 7.876 6.728-1.497 10.072-7.211 8.506-15.667" data-index="2" style="opacity:1"/><path d="M423.007 507.077c-2.16 3.36-2.784 6.704-2.722 10.303.103 5.99-.05 11.986.005 17.978.027 3.006-1.37 4.067-4.286 4.063-2.885-.003-4.326-.977-4.297-4.027.067-6.99.047-13.984-.025-20.976-.075-7.267-3.022-10.97-8.668-11.078-5.762-.11-10.318 4.373-10.607 10.983-.275 6.315-.059 12.65-.118 18.976-.027 2.926.645 6.1-4.201 6.157-4.654.055-4.489-2.75-4.478-5.893.038-10.322-.017-20.644.075-30.965.018-1.986-.885-4.678 2.2-5.347 2.617-.568 5.33-.846 6.882 2.156 11.095-5.603 16.684-5.058 25.19 2.636 4.337-3.921 9.16-6.866 15.47-6.403 8.56.627 14.456 6.028 14.789 14.607.329 8.478.013 16.98.126 25.468.042 3.124-1.524 4.058-4.291 4.087-2.875.03-4.29-1.17-4.268-4.164.053-7.158-.04-14.317-.02-21.476.011-4.256-.942-8.007-5.22-9.922-4.345-1.945-8.101-.82-11.536 2.837" data-index="3" style="opacity:1"/><path d="M505.88 501c.007-6.663.061-12.827.004-18.99-.03-3.147 1.302-4.473 4.523-4.4 6.826.152 13.668-.162 20.485.14 9.922.441 16.373 7.366 16.432 17.156.065 10.687-6.092 17.767-16.298 18.348-5.095.29-10.22.05-15.82.05 0 7.63-.04 14.263.02 20.896.027 3.09-.086 5.46-4.416 5.375-4.195-.082-4.986-2.047-4.953-5.593.1-10.826.028-21.654.022-32.982m19.363 4.716c8.592-.274 12.74-3.539 12.759-10.042.02-6.824-4.324-10.382-12.958-10.326-10.996.071-9.85-1.57-9.854 9.794-.003 12.048-1.052 10.411 10.053 10.574" data-index="4" style="opacity:1"/><path d="M721.415 495.774c14.783-.324 22.677 7.05 23.671 21.469.217 3.143-1.084 4.139-4.015 4.11a1367 1367 0 0 0-24.465.003c-4.507.038-5.26 1.492-2.992 5.42 3.963 6.863 13.429 8.346 20.556 3.202 1.54-1.11 2.648-3.003 5.14-1.48 4.055 2.479 4.29 4.376.563 7.563-6.503 5.56-17.866 6.668-25.916 2.526-8.13-4.183-12.256-12.897-11.221-23.696.857-8.944 6.411-15.56 15.357-18.277.954-.29 1.923-.529 3.322-.84m13.566 16.158c-1.649-5.78-5.868-8.903-11.572-8.566-5.736.338-9.773 4.27-10.61 10.624 6.122 0 12.21.041 18.296-.03 1.373-.017 3.085.554 3.886-2.028" data-index="5" style="opacity:1"/><path d="M590.037 502.155c2.412 3.612 3.24 7.303 3.253 11.2.024 7.155-.048 14.312.021 21.467.027 2.774-.266 4.986-3.85 4.988-3.574.002-4.976-1.521-4.852-5.166.215-6.316.12-12.647.021-18.97-.113-7.243-3.578-11.8-9.15-12.286-5.723-.5-10.342 3.632-11.568 10.68-1.176 6.763-.428 13.614-.505 20.424-.035 3.088-.527 5.033-4.333 4.981-3.813-.053-4.28-2.097-4.27-5.134.052-17.807.014-35.614.037-53.421.003-2.536-.073-5.11 3.674-5.236 3.2-.107 5.012.663 4.901 4.379-.193 6.468-.054 12.946-.054 20.24 9.636-6.063 18.467-6.9 26.675 1.854" data-index="6"/><path d="M489.046 520.954c-4.16 10.559-7.196 21.153-12.242 30.932-2.998 5.809-7.617 9.202-14.488 8.393-2.485-.292-5.934.123-5.535-3.913.324-3.274 1.585-5.721 5.894-3.93 2.431 1.01 4.648-.605 5.911-2.683 2.678-4.403 4.866-8.643 2.329-14.342-4.592-10.314-8.4-20.979-12.488-31.516-.706-1.818-1.811-3.56-1.581-5.63 6.177-2.786 8.413-1.96 10.615 3.858 3.17 8.378 6.343 16.756 9.8 25.888 3.205-5.492 4.437-10.924 6.398-16.046 1.187-3.103 2.181-6.279 3.31-9.404 2.163-5.98 3.017-6.394 10.265-4.665-1.652 7.935-5.493 15.107-8.188 23.058" data-index="7" style="opacity:1"/><path d="M685.607 531.913c-.275-6.96.702-13.478-.728-19.91-1.19-5.357-4.25-8.333-8.903-8.622-4.783-.296-9.061 3.016-10.663 8.127-1.585 5.06-.815 10.25-.986 15.387-.078 2.33-.075 4.666-.004 6.996.1 3.207.078 6.036-4.463 5.986-4.288-.046-4.184-2.747-4.174-5.74.035-10.328-.055-20.658.044-30.986.02-2.132-1.055-5.105 2.178-5.885 2.732-.658 5.788-1.199 7.01 2.838 5.485-3.944 10.996-5.54 17.279-3.703 8.097 2.367 11.607 7.085 11.997 17.357.265 6.987.01 13.993.106 20.989.043 3.101-.682 5.12-4.357 5.173-3.678.052-4.62-1.84-4.336-5.024.073-.826.005-1.665 0-2.983" data-index="8"/><path d="M343.041 509.903c-2.621-4.183-6.282-7.271-7.89-11.741 6.298-2.51 8.956-1.798 12.505 3.135 2.202 3.06 4.45 6.086 6.722 9.19 6.64-4.293 7.315-16.696 19.882-12.538-3.735 5.004-6.879 9.819-10.645 14.082-3.324 3.763-2.908 6.596.094 10.29 4.153 5.111 7.734 10.687 11.63 16.161-6.136 2.466-9.488 1.483-12.68-3.178-2.424-3.543-4.98-6.996-7.665-10.752-3.824 2.698-5.503 6.576-7.875 9.826-4.443 6.086-5.57 6.588-14.098 4.34 3.567-4.842 6.99-9.452 10.374-14.09 6.58-9.015 5.922-6.117-.354-14.725" data-index="9" style="opacity:1"/><path d="M288.185 522.954c.229-6.044 1.09-11.666-.494-17.427-1.44-.117-2.744-.328-4.043-.308-3.026.045-4.026-1.476-4.024-4.359.001-2.802 1.255-4.128 3.887-3.878 4.438.42 5.447-1.894 5.13-5.708-.166-1.98-.095-4 .07-5.985.695-8.331 6.912-13.601 15.215-12.981 6.439.481 7.313 2.109 4.292 8.405-1.372-.11-2.831-.323-4.291-.325-3.936-.004-6.302 1.882-6.565 5.922-.14 2.155.05 4.33-.08 6.487-.181 3.014 1.16 4.246 4.127 4.12 2.83-.12 5.395.195 5.528 4.026.15 4.296-2.746 4.34-5.694 4.223-3.07-.12-4.042 1.345-4.007 4.248.1 8.485-.052 16.974.072 25.46.047 3.208-.753 5.04-4.409 4.976-3.525-.062-4.49-1.696-4.366-4.985.146-3.812-.204-7.643-.348-11.911" data-index="10" style="opacity:1"/><path d="M316.044 510.072c.145-3.47.34-6.45.419-9.435.075-2.814 1.636-3.675 4.206-3.644 2.8.034 4.413 1.134 4.41 4.109-.014 11.46-.009 22.92-.022 34.38-.003 2.394-.568 4.33-3.576 4.234-2.85-.091-5.337-.475-5.33-4.245.014-8.304-.065-16.607-.107-25.399" data-index="11" style="opacity:1"/><path d="M317.795 487.301c-2.703-1.951-3.762-4.203-2.675-7.076.747-1.973 2.186-3.258 4.387-3.486 2.522-.262 4.52.62 5.887 2.786 1.159 1.835 1.32 3.797.046 5.561-1.799 2.491-4.198 3.62-7.645 2.215" data-index="12"/></svg>
